<svg width="250" height="250" viewBox="0 0 250 250" fill="none" xmlns="http://www.w3.org/2000/svg">
<path d="M29.2002 96.2402L96.2402 29.2002" stroke="white" stroke-width="0.25" stroke-miterlimit="10"/>
<path d="M26.9004 105.54L51.9704 80.4697" stroke="white" stroke-width="0.25" stroke-miterlimit="10"/>
<path d="M25.4902 113.95L46.4302 93" stroke="white" stroke-width="0.25" stroke-miterlimit="10"/>
<path d="M25.0801 121.35L42.6801 103.76" stroke="white" stroke-width="0.25" stroke-miterlimit="10"/>
<path d="M25.0596 128.38L41.4196 112.02" stroke="white" stroke-width="0.25" stroke-miterlimit="10"/>
<path d="M25.3398 135.09L40.1298 120.31" stroke="white" stroke-width="0.25" stroke-miterlimit="10"/>
<path d="M26.2998 141.14L39.9998 127.43" stroke="white" stroke-width="0.25" stroke-miterlimit="10"/>
<path d="M27.3701 147.06L40.4701 133.97" stroke="white" stroke-width="0.25" stroke-miterlimit="10"/>
<path d="M28.8496 152.58L41.3396 140.1" stroke="white" stroke-width="0.25" stroke-miterlimit="10"/>
<path d="M30.46 157.97L42.58 145.85" stroke="white" stroke-width="0.25" stroke-miterlimit="10"/>
<path d="M32.4199 163.01L44.1499 151.29" stroke="white" stroke-width="0.25" stroke-miterlimit="10"/>
<path d="M34.54 167.9L46 156.43" stroke="white" stroke-width="0.25" stroke-miterlimit="10"/>
<path d="M36.9404 172.5L48.0704 161.36" stroke="white" stroke-width="0.25" stroke-miterlimit="10"/>
<path d="M39.4502 176.99L50.4402 165.99" stroke="white" stroke-width="0.25" stroke-miterlimit="10"/>
<path d="M42.2803 181.15L53.0903 170.34" stroke="white" stroke-width="0.25" stroke-miterlimit="10"/>
<path d="M45.0996 185.33L55.9296 174.5" stroke="white" stroke-width="0.25" stroke-miterlimit="10"/>
<path d="M48.2598 189.18L58.9298 178.51" stroke="white" stroke-width="0.25" stroke-miterlimit="10"/>
<path d="M78.0303 54.3997L105.54 26.8896" stroke="white" stroke-width="0.25" stroke-miterlimit="10"/>
<path d="M94.0098 45.4201L113.6 25.8301" stroke="white" stroke-width="0.25" stroke-miterlimit="10"/>
<path d="M103.81 42.6299L121.56 24.8799" stroke="white" stroke-width="0.25" stroke-miterlimit="10"/>
<path d="M112.68 40.7504L128.25 25.1904" stroke="white" stroke-width="0.25" stroke-miterlimit="10"/>
<path d="M120.46 39.9696L134.87 25.5596" stroke="white" stroke-width="0.25" stroke-miterlimit="10"/>
<path d="M127.67 39.7701L141.36 26.0801" stroke="white" stroke-width="0.25" stroke-miterlimit="10"/>
<path d="M133.97 40.4697L147 27.4297" stroke="white" stroke-width="0.25" stroke-miterlimit="10"/>
<path d="M140.1 41.3402L152.24 29.2002" stroke="white" stroke-width="0.25" stroke-miterlimit="10"/>
<path d="M145.86 42.58L157.9 30.54" stroke="white" stroke-width="0.25" stroke-miterlimit="10"/>
<path d="M151.29 44.15L162.97 32.46" stroke="white" stroke-width="0.25" stroke-miterlimit="10"/>
<path d="M156.31 46.1203L167.83 34.6104" stroke="white" stroke-width="0.25" stroke-miterlimit="10"/>
<path d="M161.31 48.12L172.47 36.96" stroke="white" stroke-width="0.25" stroke-miterlimit="10"/>
<path d="M165.94 50.4895L176.92 39.5195" stroke="white" stroke-width="0.25" stroke-miterlimit="10"/>
<path d="M170.45 52.9804L181.28 42.1504" stroke="white" stroke-width="0.25" stroke-miterlimit="10"/>
<path d="M174.52 55.9097L185.25 45.1797" stroke="white" stroke-width="0.25" stroke-miterlimit="10"/>
<path d="M178.53 58.9L189.15 48.29" stroke="white" stroke-width="0.25" stroke-miterlimit="10"/>
<path d="M182.26 62.1796L192.87 51.5596" stroke="white" stroke-width="0.25" stroke-miterlimit="10"/>
<path d="M185.81 65.6198L196.42 55.0098" stroke="white" stroke-width="0.25" stroke-miterlimit="10"/>
<path d="M189.17 69.2599L199.8 58.6299" stroke="white" stroke-width="0.25" stroke-miterlimit="10"/>
<path d="M192.24 73.1897L202.96 62.4697" stroke="white" stroke-width="0.25" stroke-miterlimit="10"/>
<path d="M195.22 77.2104L206.04 66.4004" stroke="white" stroke-width="0.25" stroke-miterlimit="10"/>
<path d="M198 81.4298L208.89 70.5498" stroke="white" stroke-width="0.25" stroke-miterlimit="10"/>
<path d="M200.38 86.0499L211.55 74.8799" stroke="white" stroke-width="0.25" stroke-miterlimit="10"/>
<path d="M202.64 90.7902L214.02 79.4102" stroke="white" stroke-width="0.25" stroke-miterlimit="10"/>
<path d="M205 95.4296L216.3 84.1396" stroke="white" stroke-width="0.25" stroke-miterlimit="10"/>
<path d="M206.35 101.08L218.35 89.0801" stroke="white" stroke-width="0.25" stroke-miterlimit="10"/>
<path d="M207.97 106.46L220.18 94.25" stroke="white" stroke-width="0.25" stroke-miterlimit="10"/>
<path d="M209.07 112.37L221.51 99.9297" stroke="white" stroke-width="0.25" stroke-miterlimit="10"/>
<path d="M210 118.43L222.72 105.72" stroke="white" stroke-width="0.25" stroke-miterlimit="10"/>
<path d="M209.91 125.52L223.79 111.65" stroke="white" stroke-width="0.25" stroke-miterlimit="10"/>
<path d="M209.5 132.93L224.38 118.06" stroke="white" stroke-width="0.25" stroke-miterlimit="10"/>
<path d="M208.51 140.92L225.03 124.4" stroke="white" stroke-width="0.25" stroke-miterlimit="10"/>
<path d="M206.19 150.25L224.78 131.65" stroke="white" stroke-width="0.25" stroke-miterlimit="10"/>
<path d="M202.19 161.25L223.75 139.68" stroke="white" stroke-width="0.25" stroke-miterlimit="10"/>
<path d="M33.2305 85.1997L84.9605 33.4697" stroke="white" stroke-width="0.25" stroke-miterlimit="10"/>
<path d="M42.3096 69.13L69.3896 42.04" stroke="white" stroke-width="0.25" stroke-miterlimit="10"/>
<path d="M148.12 222.31L222.31 148.12" stroke="white" stroke-width="0.25" stroke-miterlimit="10"/>
<path d="M139.48 223.96L161.78 201.65" stroke="white" stroke-width="0.25" stroke-miterlimit="10"/>
<path d="M131.65 224.78L150.25 206.19" stroke="white" stroke-width="0.25" stroke-miterlimit="10"/>
<path d="M124.72 224.72L140.92 208.51" stroke="white" stroke-width="0.25" stroke-miterlimit="10"/>
<path d="M117.97 224.47L132.79 209.65" stroke="white" stroke-width="0.25" stroke-miterlimit="10"/>
<path d="M111.48 223.96L125.22 210.22" stroke="white" stroke-width="0.25" stroke-miterlimit="10"/>
<path d="M105.36 223.07L118.67 209.77" stroke="white" stroke-width="0.25" stroke-miterlimit="10"/>
<path d="M99.7998 221.64L112.37 209.07" stroke="white" stroke-width="0.25" stroke-miterlimit="10"/>
<path d="M94.25 220.18L106.2 208.24" stroke="white" stroke-width="0.25" stroke-miterlimit="10"/>
<path d="M89.2197 218.22L100.9 206.53" stroke="white" stroke-width="0.25" stroke-miterlimit="10"/>
<path d="M84.1396 216.3L95.6396 204.79" stroke="white" stroke-width="0.25" stroke-miterlimit="10"/>
<path d="M79.4102 214.03L90.6602 202.78" stroke="white" stroke-width="0.25" stroke-miterlimit="10"/>
<path d="M74.9902 211.44L85.9302 200.51" stroke="white" stroke-width="0.25" stroke-miterlimit="10"/>
<path d="M70.5498 208.89L81.4298 198" stroke="white" stroke-width="0.25" stroke-miterlimit="10"/>
<path d="M66.4004 206.04L77.2604 195.18" stroke="white" stroke-width="0.25" stroke-miterlimit="10"/>
<path d="M62.4297 203.01L73.1897 192.25" stroke="white" stroke-width="0.25" stroke-miterlimit="10"/>
<path d="M58.6602 199.78L69.2602 189.17" stroke="white" stroke-width="0.25" stroke-miterlimit="10"/>
<path d="M55.0098 196.42L65.6298 185.81" stroke="white" stroke-width="0.25" stroke-miterlimit="10"/>
<path d="M51.5596 192.87L62.1496 182.29" stroke="white" stroke-width="0.25" stroke-miterlimit="10"/>
<path d="M158.01 219.42L219.42 158.01" stroke="white" stroke-width="0.25" stroke-miterlimit="10"/>
<path d="M170.22 214.21L214.21 170.22" stroke="white" stroke-width="0.25" stroke-miterlimit="10"/>
<path d="M190.69 200.75L201.35 190.08" stroke="white" stroke-width="0.25" stroke-miterlimit="10"/>
<path d="M127.15 235.42V231.32C127.15 231.1 127.23 230.9 127.4 230.71C127.56 230.57 127.76 230.5 127.97 230.5C128.18 230.5 128.37 230.57 128.54 230.71C128.71 230.85 128.79 231.05 128.79 231.33V246.1C128.79 246.65 128.52 246.92 127.97 246.92H123.87C122.99 246.92 122.22 246.6 121.57 245.97C120.92 245.34 120.59 244.56 120.59 243.64V238.72C120.59 237.81 120.91 237.04 121.55 236.4C122.19 235.76 122.96 235.44 123.87 235.44H127.15V235.42ZM127.15 237.06H123.87C123.41 237.06 123.02 237.22 122.7 237.53C122.54 237.69 122.43 237.86 122.35 238.06C122.27 238.26 122.23 238.47 122.23 238.7V243.62C122.23 244.08 122.39 244.47 122.7 244.79C122.86 244.93 123.04 245.05 123.23 245.14C123.46 245.22 123.68 245.26 123.87 245.26H127.15V237.06Z" fill="white"/>
<path d="M25 126.39V241.39" stroke="white" stroke-width="0.5" stroke-miterlimit="10"/>
<path d="M25 234.88H115" stroke="white" stroke-width="0.5" stroke-miterlimit="10"/>
<path d="M225.03 125V240" stroke="white" stroke-width="0.5" stroke-miterlimit="10"/>
<path d="M225.03 234.94H135.03" stroke="white" stroke-width="0.5" stroke-miterlimit="10"/>
<path d="M125 225C180.228 225 225 180.228 225 125C225 69.7715 180.228 25 125 25C69.7715 25 25 69.7715 25 125C25 180.228 69.7715 225 125 225Z" stroke="white" stroke-miterlimit="10"/>
<path d="M125 210C171.944 210 210 171.944 210 125C210 78.0558 171.944 40 125 40C78.0558 40 40 78.0558 40 125C40 171.944 78.0558 210 125 210Z" stroke="white" stroke-miterlimit="10"/>
<path d="M172.18 63.9504L208.33 27.6504" stroke="white" stroke-width="0.5" stroke-miterlimit="10"/>
<path d="M218.13 21.0204C218.13 21.2504 218.04 21.4404 217.87 21.6104C217.7 21.7804 217.52 21.8604 217.35 21.8604L216.95 21.7704C215.97 21.3004 215.04 21.0704 214.16 21.0704C213.28 21.0704 212.49 21.2804 211.86 21.7004C211.7 21.8304 211.63 21.9904 211.63 22.1804C211.63 22.3904 211.71 22.5404 211.86 22.6404L217.1 26.0904C217.44 26.3604 217.69 26.6604 217.85 27.0104C218.01 27.3604 218.1 27.7004 218.1 28.0204C218.1 28.3904 218.01 28.7504 217.84 29.1104C217.66 29.4704 217.42 29.7404 217.12 29.9304C216.19 30.5604 215.12 30.8704 213.92 30.8704C212.72 30.8704 211.6 30.5704 210.52 29.9604C210.22 29.7804 210.07 29.5504 210.07 29.2604L210.12 28.9504L210.2 28.7704L210.31 28.6404C210.48 28.4704 210.67 28.3804 210.89 28.3804L211.11 28.4204L211.31 28.4904C212.15 28.9704 213.02 29.2104 213.92 29.2104C214.73 29.2104 215.5 28.9804 216.22 28.5304C216.4 28.4204 216.49 28.2404 216.49 27.9904C216.49 27.7404 216.4 27.5404 216.22 27.4304L210.97 23.9804C210.67 23.7804 210.45 23.5204 210.31 23.1904C210.21 23.0004 210.14 22.8404 210.12 22.7004C210.1 22.5604 210.08 22.3804 210.08 22.1504C210.08 21.8104 210.16 21.4704 210.31 21.1304C210.52 20.7404 210.74 20.4804 210.97 20.3404C211.88 19.7104 212.96 19.4004 214.19 19.4004C214.73 19.4004 215.31 19.4804 215.95 19.6504C216.59 19.8204 217.16 20.0204 217.7 20.2704C218 20.4704 218.16 20.7204 218.16 21.0004L218.13 21.0204Z" fill="white"/>
</svg>
