<svg width="250" height="250" viewBox="0 0 250 250" fill="none" xmlns="http://www.w3.org/2000/svg">
<path d="M75.4199 225.01L224.29 76.1504" stroke="white" stroke-width="0.25" stroke-miterlimit="10"/>
<path d="M69.75 223.69L224.65 68.79" stroke="white" stroke-width="0.25" stroke-miterlimit="10"/>
<path d="M61.5498 224.88L224.65 61.79" stroke="white" stroke-width="0.25" stroke-miterlimit="10"/>
<path d="M54.8301 224.6L224.65 54.79" stroke="white" stroke-width="0.25" stroke-miterlimit="10"/>
<path d="M48.0801 224.35L224.65 47.79" stroke="white" stroke-width="0.25" stroke-miterlimit="10"/>
<path d="M40.3496 225.09L224.65 40.79" stroke="white" stroke-width="0.25" stroke-miterlimit="10"/>
<path d="M33.5498 224.88L224.65 33.79" stroke="white" stroke-width="0.25" stroke-miterlimit="10"/>
<path d="M26.5498 224.88L224.65 26.79" stroke="white" stroke-width="0.25" stroke-miterlimit="10"/>
<path d="M24.6504 219.79L219.35 25.0898" stroke="white" stroke-width="0.25" stroke-miterlimit="10"/>
<path d="M25 212.43L212.27 25.1602" stroke="white" stroke-width="0.25" stroke-miterlimit="10"/>
<path d="M25 205.43L205.35 25.0898" stroke="white" stroke-width="0.25" stroke-miterlimit="10"/>
<path d="M25.0098 198.42L198.35 25.0898" stroke="white" stroke-width="0.25" stroke-miterlimit="10"/>
<path d="M25 191.43L191.35 25.0898" stroke="white" stroke-width="0.25" stroke-miterlimit="10"/>
<path d="M25 184.43L184.35 25.0898" stroke="white" stroke-width="0.25" stroke-miterlimit="10"/>
<path d="M24.8604 177.57L177.57 24.8604" stroke="white" stroke-width="0.25" stroke-miterlimit="10"/>
<path d="M24.6504 170.79L170.6 24.8301" stroke="white" stroke-width="0.25" stroke-miterlimit="10"/>
<path d="M25 163.43L163.4 25.04" stroke="white" stroke-width="0.25" stroke-miterlimit="10"/>
<path d="M24.2197 157.22L156.31 25.1201" stroke="white" stroke-width="0.25" stroke-miterlimit="10"/>
<path d="M25 149.43L149.28 25.1504" stroke="white" stroke-width="0.25" stroke-miterlimit="10"/>
<path d="M24.1602 143.28L142.6 24.8301" stroke="white" stroke-width="0.25" stroke-miterlimit="10"/>
<path d="M25.04 135.39L135.28 25.1504" stroke="white" stroke-width="0.25" stroke-miterlimit="10"/>
<path d="M24.5996 128.83L128.49 24.9502" stroke="white" stroke-width="0.25" stroke-miterlimit="10"/>
<path d="M25 121.43L121.49 24.9502" stroke="white" stroke-width="0.25" stroke-miterlimit="10"/>
<path d="M25 114.43L114.49 24.9502" stroke="white" stroke-width="0.25" stroke-miterlimit="10"/>
<path d="M25.1904 107.25L107.49 24.9502" stroke="white" stroke-width="0.25" stroke-miterlimit="10"/>
<path d="M25 100.43L100.49 24.9502" stroke="white" stroke-width="0.25" stroke-miterlimit="10"/>
<path d="M25.0996 93.3302L93.4896 24.9502" stroke="white" stroke-width="0.25" stroke-miterlimit="10"/>
<path d="M25 86.4302L86.49 24.9502" stroke="white" stroke-width="0.25" stroke-miterlimit="10"/>
<path d="M25 79.4302L79.49 24.9502" stroke="white" stroke-width="0.25" stroke-miterlimit="10"/>
<path d="M25 72.4302L72.49 24.9502" stroke="white" stroke-width="0.25" stroke-miterlimit="10"/>
<path d="M25 65.4302L65.49 24.9502" stroke="white" stroke-width="0.25" stroke-miterlimit="10"/>
<path d="M25 58.4302L58.49 24.9502" stroke="white" stroke-width="0.25" stroke-miterlimit="10"/>
<path d="M24.8701 51.5702L51.4901 24.9502" stroke="white" stroke-width="0.25" stroke-miterlimit="10"/>
<path d="M25.0703 44.3602L44.4903 24.9502" stroke="white" stroke-width="0.25" stroke-miterlimit="10"/>
<path d="M24.9297 37.5102L37.4897 24.9502" stroke="white" stroke-width="0.25" stroke-miterlimit="10"/>
<path d="M25.0195 30.4202L30.4895 24.9502" stroke="white" stroke-width="0.25" stroke-miterlimit="10"/>
<path d="M82.4199 225.01L224.65 82.79" stroke="white" stroke-width="0.25" stroke-miterlimit="10"/>
<path d="M89.4199 225.01L224.65 89.79" stroke="white" stroke-width="0.25" stroke-miterlimit="10"/>
<path d="M96.4199 225.01L224.33 97.1104" stroke="white" stroke-width="0.25" stroke-miterlimit="10"/>
<path d="M103.42 225.01L224.65 103.79" stroke="white" stroke-width="0.25" stroke-miterlimit="10"/>
<path d="M110.42 225.01L224.65 110.79" stroke="white" stroke-width="0.25" stroke-miterlimit="10"/>
<path d="M117.42 225.01L224.65 117.79" stroke="white" stroke-width="0.25" stroke-miterlimit="10"/>
<path d="M124.42 225.01L224.65 124.79" stroke="white" stroke-width="0.25" stroke-miterlimit="10"/>
<path d="M131.42 225.01L225.03 131.4" stroke="white" stroke-width="0.25" stroke-miterlimit="10"/>
<path d="M138.42 225.01L224.23 139.2" stroke="white" stroke-width="0.25" stroke-miterlimit="10"/>
<path d="M145.42 225.01L224.65 145.79" stroke="white" stroke-width="0.25" stroke-miterlimit="10"/>
<path d="M152.42 225.01L225.03 152.4" stroke="white" stroke-width="0.25" stroke-miterlimit="10"/>
<path d="M159.42 225.01L224.65 159.79" stroke="white" stroke-width="0.25" stroke-miterlimit="10"/>
<path d="M166.42 225.01L225.03 166.4" stroke="white" stroke-width="0.25" stroke-miterlimit="10"/>
<path d="M173.42 225.01L225.03 173.4" stroke="white" stroke-width="0.25" stroke-miterlimit="10"/>
<path d="M180.42 225.01L225.27 180.16" stroke="white" stroke-width="0.25" stroke-miterlimit="10"/>
<path d="M187.42 225.01L224.65 187.79" stroke="white" stroke-width="0.25" stroke-miterlimit="10"/>
<path d="M194.42 225.01L224.3 195.13" stroke="white" stroke-width="0.25" stroke-miterlimit="10"/>
<path d="M201.42 225.01L224.81 201.62" stroke="white" stroke-width="0.25" stroke-miterlimit="10"/>
<path d="M208.42 225.01L224.78 208.65" stroke="white" stroke-width="0.25" stroke-miterlimit="10"/>
<path d="M215.42 225.01L225.16 215.27" stroke="white" stroke-width="0.25" stroke-miterlimit="10"/>
<path d="M222.42 225.01L225.07 222.36" stroke="white" stroke-width="0.25" stroke-miterlimit="10"/>
<path d="M127.96 239.82C127.69 240.12 127.33 240.38 126.88 240.59C126.43 240.8 125.97 240.9 125.51 240.9H123.87C122.99 240.9 122.22 240.58 121.57 239.95C120.92 239.32 120.59 238.54 120.59 237.62V232.7C120.59 231.79 120.91 231.02 121.55 230.38C122.19 229.74 122.96 229.42 123.87 229.42H127.97C128.52 229.42 128.79 229.69 128.79 230.24V237.6C128.79 237.93 128.9 238.26 129.11 238.61C129.3 238.91 129.57 239.15 129.93 239.32C130.27 239.46 130.45 239.71 130.45 240.06C130.45 240.3 130.37 240.5 130.22 240.66C130.08 240.82 129.88 240.91 129.63 240.91C129.51 240.91 129.4 240.88 129.29 240.83C128.75 240.62 128.31 240.29 127.97 239.83L127.96 239.82ZM127.15 237.62V231.06H123.87C123.41 231.06 123.02 231.22 122.7 231.53C122.54 231.69 122.43 231.86 122.35 232.06C122.27 232.26 122.23 232.47 122.23 232.7V237.62C122.23 238.08 122.39 238.47 122.7 238.79C122.86 238.93 123.04 239.05 123.23 239.14C123.46 239.22 123.68 239.26 123.87 239.26H125.51C125.96 239.26 126.35 239.11 126.67 238.8C126.99 238.49 127.15 238.1 127.15 237.62Z" fill="white"/>
<path d="M25 224.88V239.88" stroke="white" stroke-width="0.5" stroke-miterlimit="10"/>
<path d="M25 234.88H115" stroke="white" stroke-width="0.5" stroke-miterlimit="10"/>
<path d="M225.03 224.94V239.94" stroke="white" stroke-width="0.5" stroke-miterlimit="10"/>
<path d="M225.03 234.94H135.03" stroke="white" stroke-width="0.5" stroke-miterlimit="10"/>
<path d="M15 225V140" stroke="white" stroke-width="0.5" stroke-miterlimit="10"/>
<path d="M25 224.88H10" stroke="white" stroke-width="0.5" stroke-miterlimit="10"/>
<path d="M24.6504 25.0898H9.65039" stroke="white" stroke-width="0.5" stroke-miterlimit="10"/>
<path d="M15.0898 25.0898V110.09" stroke="white" stroke-width="0.5" stroke-miterlimit="10"/>
<path d="M224.37 25.0898H24.6504V224.88C24.8604 224.88 25.0004 224.88 25.0004 224.88H224.65C224.65 217.7 224.65 25.0898 224.65 25.0898H224.37Z" stroke="white" stroke-miterlimit="10"/>
<path d="M18.66 129.15C18.39 129.45 18.03 129.71 17.58 129.92C17.13 130.13 16.67 130.23 16.21 130.23H14.57C13.69 130.23 12.92 129.91 12.27 129.28C11.62 128.65 11.29 127.87 11.29 126.95V122.03C11.29 121.12 11.61 120.35 12.25 119.71C12.89 119.07 13.66 118.75 14.57 118.75H18.67C19.22 118.75 19.49 119.02 19.49 119.57V126.93C19.49 127.26 19.6 127.59 19.81 127.94C20 128.24 20.27 128.48 20.63 128.65C20.97 128.79 21.15 129.04 21.15 129.39C21.15 129.63 21.07 129.83 20.92 129.99C20.78 130.15 20.58 130.24 20.33 130.24C20.21 130.24 20.1 130.21 19.99 130.16C19.45 129.95 19.01 129.62 18.67 129.16L18.66 129.15ZM17.85 126.95V120.39H14.57C14.11 120.39 13.72 120.55 13.4 120.86C13.24 121.02 13.13 121.19 13.05 121.39C12.97 121.59 12.93 121.8 12.93 122.03V126.95C12.93 127.41 13.09 127.8 13.4 128.12C13.56 128.26 13.74 128.38 13.93 128.47C14.16 128.55 14.38 128.59 14.57 128.59H16.21C16.66 128.59 17.05 128.44 17.37 128.13C17.69 127.82 17.85 127.43 17.85 126.95Z" fill="white"/>
</svg>
